<svg xmlns="http://www.w3.org/2000/svg" width="30" height="30" viewBox="0 0 30 30">
  <metadata><?xpacket begin="﻿" id="W5M0MpCehiHzreSzNTczkc9d"?>
<x:xmpmeta xmlns:x="adobe:ns:meta/" x:xmptk="Adobe XMP Core 5.6-c142 79.160924, 2017/07/13-01:06:39        ">
   <rdf:RDF xmlns:rdf="http://www.w3.org/1999/02/22-rdf-syntax-ns#">
      <rdf:Description rdf:about=""/>
   </rdf:RDF>
</x:xmpmeta>
                                                                                                    
                                                                                                    
                                                                                                    
                                                                                                    
                                                                                                    
                                                                                                    
                                                                                                    
                                                                                                    
                                                                                                    
                                                                                                    
                                                                                                    
                                                                                                    
                                                                                                    
                                                                                                    
                                                                                                    
                                                                                                    
                                                                                                    
                                                                                                    
                                                                                                    
                                                                                                    
                           
<?xpacket end="w"?></metadata>
<defs>
    <style>
      .cls-1 {
        fill-rule: evenodd;
      }
    </style>
  </defs>
  <g id="controll_press" data-name="controll press">
    <path id="Shape_2992_copy_2" data-name="Shape 2992 copy 2" class="cls-1" d="M1185.8,428.2a0.8,0.8,0,0,1-.8-0.8V421.81a0.8,0.8,0,0,1,.8-0.8h5.6a0.8,0.8,0,1,1,0,1.6h-4.8v4.8A0.8,0.8,0,0,1,1185.8,428.2Zm18.39,0a0.794,0.794,0,0,1-.8-0.8v-4.8h-4.8a0.8,0.8,0,1,1,0-1.6h5.6a0.792,0.792,0,0,1,.79.8V427.4A0.792,0.792,0,0,1,1204.19,428.2Zm-12.79,12.786h-5.6a0.8,0.8,0,0,1-.8-0.8V434.6a0.8,0.8,0,0,1,1.6,0v4.8h4.8A0.8,0.8,0,1,1,1191.4,440.989Zm12.79,0h-5.6a0.8,0.8,0,1,1,0-1.6h4.8v-4.8a0.8,0.8,0,1,1,1.59,0v5.594A0.792,0.792,0,0,1,1204.19,440.989ZM1192.2,429a0.805,0.805,0,0,1-.57-0.234l-6.39-6.393a0.8,0.8,0,1,1,1.13-1.13l6.39,6.393a0.8,0.8,0,0,1,0,1.13A0.783,0.783,0,0,1,1192.2,429Zm5.59,0a0.8,0.8,0,0,1-.56-1.364l6.39-6.393a0.8,0.8,0,0,1,1.13,1.13l-6.39,6.393A0.805,0.805,0,0,1,1197.79,429Zm6.4,11.987a0.805,0.805,0,0,1-.57-0.234l-6.39-6.393a0.785,0.785,0,0,1,0-1.13,0.8,0.8,0,0,1,1.13,0l6.39,6.393A0.8,0.8,0,0,1,1204.19,440.989Zm-18.39,0a0.783,0.783,0,0,1-.56-0.234,0.8,0.8,0,0,1,0-1.13l6.39-6.393a0.8,0.8,0,1,1,1.13,1.13l-6.39,6.393A0.805,0.805,0,0,1,1185.8,440.989Z" transform="translate(-1180 -416)"/>
  </g>
</svg>
